<svg viewBox="0 0 1200 1000" role="img" aria-labelledby="title desc" xmlns="http://www.w3.org/2000/svg">
	<title id="title">Job Portal cover</title>
	<desc id="desc">Dark banner with the Job Portal title, a rising bar chart, and feature labels.</desc>
	<defs>
		<linearGradient id="bg" x1="0" y1="0" x2="1" y2="1">
			<stop offset="0" stop-color="#0b1220"/>
			<stop offset="1" stop-color="#0f1a2b"/>
		</linearGradient>
		<linearGradient id="bar" x1="0" y1="1" x2="0" y2="0">
			<stop offset="0" stop-color="#1e6f8c"/>
			<stop offset="1" stop-color="#38bdf8"/>
		</linearGradient>
	</defs>

	<rect width="1200" height="1000" fill="url(#bg)"/>

	<!-- title -->
	<text x="80" y="185" fill="#f1f5f9" font-family="Arial, Helvetica, sans-serif" font-size="92" font-weight="700">Job Portal</text>
	<text x="84" y="255" fill="#38bdf8" font-family="Arial, Helvetica, sans-serif" font-size="40" font-weight="600">Tracking open positions over time</text>

	<!-- bar chart -->
	<line x1="80" y1="645" x2="1120" y2="645" stroke="#1f2d44" stroke-width="3"/>
	<g fill="url(#bar)">
		<rect x="100" y="520" width="110" height="125" rx="10"/>
		<rect x="250" y="445" width="110" height="200" rx="10"/>
		<rect x="400" y="470" width="110" height="175" rx="10"/>
		<rect x="550" y="385" width="110" height="260" rx="10"/>
		<rect x="700" y="415" width="110" height="230" rx="10"/>
		<rect x="850" y="320" width="110" height="325" rx="10"/>
		<rect x="1000" y="350" width="110" height="295" rx="10"/>
	</g>

	<!-- feature pills -->
	<g font-family="Arial, Helvetica, sans-serif" font-size="40" font-weight="700">
		<g fill="#10263a" stroke="#38bdf8" stroke-width="2">
			<rect x="80" y="720" width="300" height="110" rx="22"/>
			<rect x="450" y="720" width="300" height="110" rx="22"/>
			<rect x="820" y="720" width="300" height="110" rx="22"/>
		</g>
		<g fill="#dcefff" text-anchor="middle">
			<text x="230" y="789">Scrapers</text>
			<text x="600" y="789">REST API</text>
			<text x="970" y="789">Dashboard</text>
		</g>
	</g>

	<!-- terminal dots -->
	<g fill="#38bdf8">
		<circle cx="92" cy="905" r="9"/>
		<circle cx="124" cy="905" r="9"/>
		<circle cx="156" cy="905" r="9"/>
		<rect x="190" y="897" width="560" height="16" rx="8"/>
		<rect x="190" y="933" width="700" height="16" rx="8" opacity="0.65"/>
	</g>
</svg>
