<?xml version="1.0" encoding="UTF-8" standalone="no"?>
<!-- Created with Inkscape (http://www.inkscape.org/) -->

<svg
   xmlns:dc="http://purl.org/dc/elements/1.1/"
   xmlns:cc="http://creativecommons.org/ns#"
   xmlns:rdf="http://www.w3.org/1999/02/22-rdf-syntax-ns#"
   xmlns:svg="http://www.w3.org/2000/svg"
   xmlns="http://www.w3.org/2000/svg"
   xmlns:sodipodi="http://sodipodi.sourceforge.net/DTD/sodipodi-0.dtd"
   xmlns:inkscape="http://www.inkscape.org/namespaces/inkscape"
   width="340"
   height="280"
   id="svg2"
   version="1.1"
   inkscape:version="0.48.2 r9819"
   sodipodi:docname="Windschiefe_Geraden_mit_Fußpunkten.svg">
  <title
     id="title3087">Windschiefe Geraden Fußpunkte</title>
  <defs
     id="defs4">
    <marker
       inkscape:stockid="Tail"
       orient="auto"
       refY="0"
       refX="0"
       id="Tail"
       style="overflow:visible">
      <g
         id="g3854"
         transform="scale(-1.2,-1.2)">
        <path
           id="path3856"
           d="M -3.8048674,-3.9585227 0.54352094,0"
           style="fill:none;stroke:#000000;stroke-width:0.80000001;stroke-linecap:round;marker-start:none;marker-end:none"
           inkscape:connector-curvature="0" />
        <path
           id="path3858"
           d="M -1.2866832,-3.9585227 3.0617053,0"
           style="fill:none;stroke:#000000;stroke-width:0.80000001;stroke-linecap:round;marker-start:none;marker-end:none"
           inkscape:connector-curvature="0" />
        <path
           id="path3860"
           d="M 1.3053582,-3.9585227 5.6537466,0"
           style="fill:none;stroke:#000000;stroke-width:0.80000001;stroke-linecap:round;marker-start:none;marker-end:none"
           inkscape:connector-curvature="0" />
        <path
           id="path3862"
           d="M -3.8048674,4.1775838 0.54352094,0.21974226"
           style="fill:none;stroke:#000000;stroke-width:0.80000001;stroke-linecap:round;marker-start:none;marker-end:none"
           inkscape:connector-curvature="0" />
        <path
           id="path3864"
           d="M -1.2866832,4.1775838 3.0617053,0.21974226"
           style="fill:none;stroke:#000000;stroke-width:0.80000001;stroke-linecap:round;marker-start:none;marker-end:none"
           inkscape:connector-curvature="0" />
        <path
           id="path3866"
           d="M 1.3053582,4.1775838 5.6537466,0.21974226"
           style="fill:none;stroke:#000000;stroke-width:0.80000001;stroke-linecap:round;marker-start:none;marker-end:none"
           inkscape:connector-curvature="0" />
      </g>
    </marker>
    <marker
       inkscape:stockid="Arrow1Lstart"
       orient="auto"
       refY="0"
       refX="0"
       id="Arrow1Lstart"
       style="overflow:visible">
      <path
         id="path3818"
         d="M 0,0 5,-5 -12.5,0 5,5 0,0 z"
         style="fill-rule:evenodd;stroke:#000000;stroke-width:1pt;marker-start:none"
         transform="matrix(0.8,0,0,0.8,10,0)"
         inkscape:connector-curvature="0" />
    </marker>
    <marker
       inkscape:stockid="Arrow2Lend"
       orient="auto"
       refY="0"
       refX="0"
       id="Arrow2Lend"
       style="overflow:visible">
      <path
         id="path3839"
         style="font-size:12px;fill-rule:evenodd;stroke-width:0.625;stroke-linejoin:round"
         d="M 8.7185878,4.0337352 -2.2072895,0.01601326 8.7185884,-4.0017078 c -1.7454984,2.3720609 -1.7354408,5.6174519 -6e-7,8.035443 z"
         transform="matrix(-1.1,0,0,-1.1,-1.1,0)"
         inkscape:connector-curvature="0" />
    </marker>
    <marker
       inkscape:stockid="Arrow2Lend"
       orient="auto"
       refY="0"
       refX="0"
       id="Arrow2Lend-2"
       style="overflow:visible">
      <path
         inkscape:connector-curvature="0"
         id="path3839-4"
         style="font-size:12px;fill-rule:evenodd;stroke-width:0.625;stroke-linejoin:round"
         d="M 8.7185878,4.0337352 -2.2072895,0.01601326 8.7185884,-4.0017078 c -1.7454984,2.3720609 -1.7354408,5.6174519 -6e-7,8.035443 z"
         transform="matrix(-1.1,0,0,-1.1,-1.1,0)" />
    </marker>
    <marker
       inkscape:stockid="Arrow2Lend"
       orient="auto"
       refY="0"
       refX="0"
       id="Arrow2Lend-8"
       style="overflow:visible">
      <path
         inkscape:connector-curvature="0"
         id="path3839-1"
         style="font-size:12px;fill-rule:evenodd;stroke-width:0.625;stroke-linejoin:round"
         d="M 8.7185878,4.0337352 -2.2072895,0.01601326 8.7185884,-4.0017078 c -1.7454984,2.3720609 -1.7354408,5.6174519 -6e-7,8.035443 z"
         transform="matrix(-1.1,0,0,-1.1,-1.1,0)" />
    </marker>
    <marker
       inkscape:stockid="Arrow2Lend"
       orient="auto"
       refY="0"
       refX="0"
       id="Arrow2Lend-0"
       style="overflow:visible">
      <path
         inkscape:connector-curvature="0"
         id="path3839-0"
         style="font-size:12px;fill-rule:evenodd;stroke-width:0.625;stroke-linejoin:round"
         d="M 8.7185878,4.0337352 -2.2072895,0.01601326 8.7185884,-4.0017078 c -1.7454984,2.3720609 -1.7354408,5.6174519 -6e-7,8.035443 z"
         transform="matrix(-1.1,0,0,-1.1,-1.1,0)" />
    </marker>
    <marker
       inkscape:stockid="Arrow2Lend"
       orient="auto"
       refY="0"
       refX="0"
       id="Arrow2Lend-7"
       style="overflow:visible">
      <path
         inkscape:connector-curvature="0"
         id="path3839-7"
         style="font-size:12px;fill-rule:evenodd;stroke-width:0.625;stroke-linejoin:round"
         d="M 8.7185878,4.0337352 -2.2072895,0.01601326 8.7185884,-4.0017078 c -1.7454984,2.3720609 -1.7354408,5.6174519 -6e-7,8.035443 z"
         transform="matrix(-1.1,0,0,-1.1,-1.1,0)" />
    </marker>
    <marker
       inkscape:stockid="Arrow2Lend"
       orient="auto"
       refY="0"
       refX="0"
       id="Arrow2Lend-7-9"
       style="overflow:visible">
      <path
         inkscape:connector-curvature="0"
         id="path3839-7-3"
         style="font-size:12px;fill-rule:evenodd;stroke-width:0.625;stroke-linejoin:round"
         d="M 8.7185878,4.0337352 -2.2072895,0.01601326 8.7185884,-4.0017078 c -1.7454984,2.3720609 -1.7354408,5.6174519 -6e-7,8.035443 z"
         transform="matrix(-1.1,0,0,-1.1,-1.1,0)" />
    </marker>
    <marker
       inkscape:stockid="Arrow2Lend"
       orient="auto"
       refY="0"
       refX="0"
       id="Arrow2Lend-7-91"
       style="overflow:visible">
      <path
         inkscape:connector-curvature="0"
         id="path3839-7-2"
         style="font-size:12px;fill-rule:evenodd;stroke-width:0.625;stroke-linejoin:round"
         d="M 8.7185878,4.0337352 -2.2072895,0.01601326 8.7185884,-4.0017078 c -1.7454984,2.3720609 -1.7354408,5.6174519 -6e-7,8.035443 z"
         transform="matrix(-1.1,0,0,-1.1,-1.1,0)" />
    </marker>
    <marker
       inkscape:stockid="Arrow2Lend"
       orient="auto"
       refY="0"
       refX="0"
       id="Arrow2Lend-7-5"
       style="overflow:visible">
      <path
         inkscape:connector-curvature="0"
         id="path3839-7-30"
         style="font-size:12px;fill-rule:evenodd;stroke-width:0.625;stroke-linejoin:round"
         d="M 8.7185878,4.0337352 -2.2072895,0.01601326 8.7185884,-4.0017078 c -1.7454984,2.3720609 -1.7354408,5.6174519 -6e-7,8.035443 z"
         transform="matrix(-1.1,0,0,-1.1,-1.1,0)" />
    </marker>
    <marker
       inkscape:stockid="Arrow2Lend"
       orient="auto"
       refY="0"
       refX="0"
       id="Arrow2Lend-7-3"
       style="overflow:visible">
      <path
         inkscape:connector-curvature="0"
         id="path3839-7-1"
         style="font-size:12px;fill-rule:evenodd;stroke-width:0.625;stroke-linejoin:round"
         d="M 8.7185878,4.0337352 -2.2072895,0.01601326 8.7185884,-4.0017078 c -1.7454984,2.3720609 -1.7354408,5.6174519 -6e-7,8.035443 z"
         transform="matrix(-1.1,0,0,-1.1,-1.1,0)" />
    </marker>
    <marker
       inkscape:stockid="Arrow2Lend"
       orient="auto"
       refY="0"
       refX="0"
       id="Arrow2Lend-7-7"
       style="overflow:visible">
      <path
         inkscape:connector-curvature="0"
         id="path3839-7-7"
         style="font-size:12px;fill-rule:evenodd;stroke-width:0.625;stroke-linejoin:round"
         d="M 8.7185878,4.0337352 -2.2072895,0.01601326 8.7185884,-4.0017078 c -1.7454984,2.3720609 -1.7354408,5.6174519 -6e-7,8.035443 z"
         transform="matrix(-1.1,0,0,-1.1,-1.1,0)" />
    </marker>
  </defs>
  <sodipodi:namedview
     id="base"
     pagecolor="#ffffff"
     bordercolor="#666666"
     borderopacity="1.0"
     inkscape:pageopacity="0.0"
     inkscape:pageshadow="2"
     inkscape:zoom="2.4885856"
     inkscape:cx="168.59064"
     inkscape:cy="100.94446"
     inkscape:document-units="px"
     inkscape:current-layer="layer1"
     showgrid="false"
     inkscape:window-width="1024"
     inkscape:window-height="576"
     inkscape:window-x="0"
     inkscape:window-y="24"
     inkscape:window-maximized="1"
     fit-margin-top="0"
     fit-margin-left="0"
     fit-margin-right="0"
     fit-margin-bottom="0" />
  <metadata
     id="metadata7">
    <rdf:RDF>
      <cc:Work
         rdf:about="">
        <dc:format>image/svg+xml</dc:format>
        <dc:type
           rdf:resource="http://purl.org/dc/dcmitype/StillImage" />
        <dc:title>Windschiefe Geraden Fußpunkte</dc:title>
        <cc:license
           rdf:resource="http://creativecommons.org/licenses/by-sa/3.0/" />
        <dc:creator>
          <cc:Agent>
            <dc:title>Klaus-Dieter Keller</dc:title>
          </cc:Agent>
        </dc:creator>
      </cc:Work>
      <cc:License
         rdf:about="http://creativecommons.org/licenses/by-sa/3.0/">
        <cc:permits
           rdf:resource="http://creativecommons.org/ns#Reproduction" />
        <cc:permits
           rdf:resource="http://creativecommons.org/ns#Distribution" />
        <cc:requires
           rdf:resource="http://creativecommons.org/ns#Notice" />
        <cc:requires
           rdf:resource="http://creativecommons.org/ns#Attribution" />
        <cc:permits
           rdf:resource="http://creativecommons.org/ns#DerivativeWorks" />
        <cc:requires
           rdf:resource="http://creativecommons.org/ns#ShareAlike" />
      </cc:License>
    </rdf:RDF>
  </metadata>
  <g
     inkscape:label="Ebene 1"
     inkscape:groupmode="layer"
     id="layer1"
     transform="translate(-51.78125,-79.526031)">
    <path
       style="fill:none;stroke:#000000;stroke-width:2;stroke-linecap:butt;stroke-linejoin:miter;stroke-miterlimit:4;stroke-opacity:1;stroke-dasharray:none"
       d="M 119.27607,347.70709 C 378.97637,115.67246 378.97637,115.67246 378.97637,115.67246"
       id="path2985"
       inkscape:connector-curvature="0" />
    <path
       style="fill:none;stroke:#000000;stroke-width:2;stroke-linecap:butt;stroke-linejoin:miter;stroke-miterlimit:4;stroke-opacity:1;stroke-dasharray:none"
       d="M 261.17417,220.98048 209.4126,196.88458 186.20913,89.791673"
       id="path2995"
       inkscape:connector-curvature="0"
       sodipodi:nodetypes="ccc" />
    <path
       style="fill:none;stroke:#000000;stroke-width:2;stroke-linecap:butt;stroke-linejoin:miter;stroke-miterlimit:4;stroke-opacity:1;stroke-dasharray:none"
       d="m 220.12189,257.57056 16.06394,82.997"
       id="path2997"
       inkscape:connector-curvature="0" />
    <path
       style="fill:none;stroke:#000000;stroke-width:1;stroke-linecap:butt;stroke-linejoin:miter;stroke-opacity:1;stroke-miterlimit:4;stroke-dasharray:3,3;stroke-dashoffset:0"
       d="M 160.32835,310.22457 61.267411,256.67812 190.67134,147.80033"
       id="path3769"
       inkscape:connector-curvature="0" />
    <path
       style="fill:none;stroke:#000000;stroke-width:1;stroke-linecap:butt;stroke-linejoin:miter;stroke-opacity:1;stroke-miterlimit:4;stroke-dasharray:3,3;stroke-dashoffset:0"
       d="m 203.16551,135.30616 54.4389,-46.406928 92.81385,51.761568"
       id="path3771"
       inkscape:connector-curvature="0" />
    <path
       sodipodi:type="arc"
       style="fill:#000000;fill-opacity:1;stroke:#000000;stroke-width:2;stroke-miterlimit:4;stroke-opacity:1;stroke-dasharray:none;stroke-dashoffset:0"
       id="path3773"
       sodipodi:cx="85.674324"
       sodipodi:cy="134.93294"
       sodipodi:rx="2.6773226"
       sodipodi:ry="2.6773226"
       d="m 88.351647,134.93294 c 0,1.47864 -1.198679,2.67732 -2.677323,2.67732 -1.478644,0 -2.677323,-1.19868 -2.677323,-2.67732 0,-1.47865 1.198679,-2.67733 2.677323,-2.67733 1.478644,0 2.677323,1.19868 2.677323,2.67733 z"
       transform="translate(84.470874,166.36722)" />
    <path
       sodipodi:type="arc"
       style="fill:#000000;fill-opacity:1;stroke:#000000;stroke-width:2;stroke-miterlimit:4;stroke-opacity:1;stroke-dasharray:none;stroke-dashoffset:0"
       id="path3773-6"
       sodipodi:cx="85.674324"
       sodipodi:cy="134.93294"
       sodipodi:rx="2.6773226"
       sodipodi:ry="2.6773226"
       d="m 88.351647,134.93294 c 0,1.47864 -1.198679,2.67732 -2.677323,2.67732 -1.478644,0 -2.677323,-1.19868 -2.677323,-2.67732 0,-1.47865 1.198679,-2.67733 2.677323,-2.67733 1.478644,0 2.677323,1.19868 2.677323,2.67733 z"
       transform="translate(148.72662,194.0329)" />
    <g
       style="font-size:20px;font-style:normal;font-weight:normal;line-height:125%;letter-spacing:0px;word-spacing:0px;fill:#000000;fill-opacity:1;stroke:none;font-family:Sans"
       id="text3793">
      <path
         d="m 180.55092,303.83493 -2.67578,7.25586 5.36133,0 -2.68555,-7.25586 m -1.11328,-1.94336 2.23633,0 5.55664,14.58008 -2.05079,0 -1.32812,-3.74024 -6.57227,0 -1.32812,3.74024 -2.08008,0 5.56641,-14.58008"
         style=""
         id="path3061" />
    </g>
    <g
       style="font-size:20px;font-style:normal;font-weight:normal;line-height:125%;letter-spacing:0px;word-spacing:0px;fill:#000000;fill-opacity:1;stroke:none;font-family:Sans"
       id="text3797">
      <path
         d="m 245.47601,327.35757 0,5.3418 3.16407,0 c 1.06119,0 1.84569,-0.2181 2.35351,-0.6543 0.51431,-0.4427 0.77148,-1.11653 0.77149,-2.02148 -1e-5,-0.91145 -0.25718,-1.58203 -0.77149,-2.01172 -0.50782,-0.43619 -1.29232,-0.65429 -2.35351,-0.6543 l -3.16407,0 m 0,-5.99609 0,4.39453 2.91993,0 c 0.96353,10e-6 1.67967,-0.17903 2.14843,-0.53711 0.47525,-0.36457 0.71288,-0.91796 0.71289,-1.66015 -1e-5,-0.73567 -0.23764,-1.2858 -0.71289,-1.65039 -0.46876,-0.36457 -1.1849,-0.54687 -2.14843,-0.54688 l -2.91993,0 m -1.97265,-1.62109 5.03906,0 c 1.5039,1e-5 2.66275,0.31251 3.47656,0.9375 0.81379,0.62501 1.22069,1.51368 1.22071,2.66601 -2e-5,0.89194 -0.20835,1.60157 -0.625,2.12891 -0.41668,0.52735 -1.02866,0.85613 -1.83594,0.98633 0.97004,0.20834 1.72199,0.64454 2.25586,1.30859 0.54035,0.65756 0.81053,1.48113 0.81054,2.4707 -1e-5,1.30209 -0.44272,2.30795 -1.32812,3.01758 -0.88543,0.70964 -2.14519,1.06446 -3.7793,1.06446 l -5.23437,0 0,-14.58008"
         style=""
         id="path3058" />
    </g>
    <g
       style="font-size:20px;font-style:normal;font-weight:normal;line-height:125%;letter-spacing:0px;word-spacing:0px;fill:#000000;fill-opacity:1;stroke:none;font-family:Sans"
       id="text3801">
      <path
         d="m 91.788391,242.09802 9.218749,0 0,1.66016 -7.246093,0 0,4.3164 6.943363,0 0,1.66016 -6.943363,0 0,5.2832 7.421873,0 0,1.66016 -9.394529,0 0,-14.58008"
         style=""
         id="path3067" />
    </g>
    <g
       style="font-size:20px;font-style:normal;font-weight:normal;line-height:125%;letter-spacing:0px;word-spacing:0px;fill:#000000;fill-opacity:1;stroke:none;font-family:Sans"
       id="text3805">
      <path
         d="m 150.66914,339.43408 c -1e-5,-1.30207 -0.27019,-2.31119 -0.81054,-3.02734 -0.53387,-0.71614 -1.28582,-1.07421 -2.25586,-1.07422 -0.96355,1e-5 -1.7155,0.35808 -2.25586,1.07422 -0.53386,0.71615 -0.80079,1.72527 -0.80078,3.02734 -1e-5,1.29558 0.26692,2.30144 0.80078,3.01758 0.54036,0.71615 1.29231,1.07422 2.25586,1.07422 0.97004,0 1.72199,-0.35807 2.25586,-1.07422 0.54035,-0.71614 0.81053,-1.722 0.81054,-3.01758 m 1.79688,4.23828 c -10e-6,1.86198 -0.41342,3.24544 -1.24024,4.15039 -0.82683,0.91146 -2.0931,1.36719 -3.79882,1.36719 -0.63152,0 -1.22722,-0.0488 -1.78711,-0.14648 -0.5599,-0.0911 -1.10352,-0.23438 -1.63086,-0.42969 l 0,-1.74805 c 0.52734,0.28646 1.04817,0.49805 1.5625,0.63477 0.51432,0.13671 1.0384,0.20507 1.57226,0.20508 1.17838,-1e-5 2.06054,-0.30925 2.64649,-0.92774 0.58593,-0.61198 0.87889,-1.53971 0.8789,-2.7832 l 0,-0.88867 c -0.3711,0.64453 -0.84636,1.1263 -1.42578,1.44531 -0.57943,0.31901 -1.27279,0.47852 -2.08008,0.47852 -1.34115,0 -2.42187,-0.51107 -3.24218,-1.53321 -0.82032,-1.02213 -1.23047,-2.3763 -1.23047,-4.0625 0,-1.6927 0.41015,-3.05012 1.23047,-4.07226 0.82031,-1.02213 1.90103,-1.5332 3.24218,-1.53321 0.80729,10e-6 1.50065,0.15952 2.08008,0.47852 0.57942,0.31902 1.05468,0.80079 1.42578,1.44531 l 0,-1.66015 1.79688,0 0,9.58007"
         style=""
         id="path3052" />
    </g>
    <g
       style="font-size:20px;font-style:normal;font-weight:normal;line-height:125%;letter-spacing:0px;word-spacing:0px;fill:#000000;fill-opacity:1;stroke:none;font-family:Sans"
       id="text3809">
      <path
         d="m 182.01422,111.74821 0,6.60157 -1.79687,0 0,-6.54297 c -1e-5,-1.03515 -0.20184,-1.80989 -0.60547,-2.32422 -0.40366,-0.51431 -1.00912,-0.77148 -1.81641,-0.77148 -0.97006,0 -1.73503,0.30925 -2.29492,0.92773 -0.5599,0.6185 -0.83985,1.4616 -0.83984,2.5293 l 0,6.18164 -1.80665,0 0,-15.19532 1.80665,0 0,5.95704 c 0.42968,-0.65755 0.93424,-1.14908 1.51367,-1.47461 0.58593,-0.32551 1.25976,-0.48827 2.02148,-0.48828 1.2565,10e-6 2.20702,0.39063 2.85156,1.17187 0.64452,0.77475 0.96679,1.91733 0.9668,3.42773"
         style=""
         id="path3085" />
    </g>
    <g
       id="g3064">
      <path
         style="font-size:medium;font-style:normal;font-variant:normal;font-weight:normal;font-stretch:normal;text-indent:0;text-align:start;text-decoration:none;line-height:normal;letter-spacing:normal;word-spacing:normal;text-transform:none;direction:ltr;block-progression:tb;writing-mode:lr-tb;text-anchor:start;baseline-shift:baseline;color:#000000;fill:#000000;fill-opacity:1;stroke:none;stroke-width:1.5;marker:none;visibility:visible;display:inline;overflow:visible;enable-background:accumulate;font-family:Sans;-inkscape-font-specification:Sans"
         d="m 201.5625,273.09375 -31.125,26.03125 0.96875,1.15625 31.125,-26.03125 -0.96875,-1.15625 z"
         id="path4827-8"
         inkscape:connector-curvature="0" />
      <path
         inkscape:connector-curvature="0"
         d="m 185.47937,278.85416 18.08087,-6.48279 -9.57361,16.65205 c -0.30232,-4.84996 -3.75101,-8.94651 -8.50726,-10.16926 z"
         style="font-size:12px;fill-rule:evenodd;stroke-width:0.625;stroke-linejoin:round"
         id="path3071" />
    </g>
    <g
       id="g3053">
      <path
         style="font-size:medium;font-style:normal;font-variant:normal;font-weight:normal;font-stretch:normal;text-indent:0;text-align:start;text-decoration:none;line-height:normal;letter-spacing:normal;word-spacing:normal;text-transform:none;direction:ltr;block-progression:tb;writing-mode:lr-tb;text-anchor:start;baseline-shift:baseline;color:#000000;fill:#000000;fill-opacity:1;stroke:none;stroke-width:1.5;marker:none;visibility:visible;display:inline;overflow:visible;enable-background:accumulate;font-family:Sans;-inkscape-font-specification:Sans"
         d="m 227.125,287.46875 -1.46875,0.28125 7.5625,39.84375 1.46875,-0.28125 -7.5625,-39.84375 z"
         id="path4827-87"
         inkscape:connector-curvature="0" />
      <path
         inkscape:connector-curvature="0"
         d="m 222.83545,304.59374 3.15544,-18.94698 9.87103,16.47749 c -4.38185,-2.10068 -9.63994,-1.08699 -13.02647,2.46949 z"
         style="font-size:12px;fill-rule:evenodd;stroke-width:0.625;stroke-linejoin:round"
         id="path3062" />
    </g>
    <g
       id="g3073">
      <path
         style="font-size:medium;font-style:normal;font-variant:normal;font-weight:normal;font-stretch:normal;text-indent:0;text-align:start;text-decoration:none;line-height:normal;letter-spacing:normal;word-spacing:normal;text-transform:none;direction:ltr;block-progression:tb;writing-mode:lr-tb;text-anchor:start;baseline-shift:baseline;color:#000000;fill:#000000;fill-opacity:1;stroke:none;stroke-width:1.5;marker:none;visibility:visible;display:inline;overflow:visible;enable-background:accumulate;font-family:Sans;-inkscape-font-specification:Sans"
         d="m 223.90625,201.53125 -0.65625,1.34375 36.125,18.40625 0.6875,-1.3125 -36.15625,-18.4375 z"
         id="path4827-8-5"
         inkscape:connector-curvature="0" />
      <path
         inkscape:connector-curvature="0"
         d="m 234.84039,215.409 -13.04917,-14.09482 19.07176,2.28314 c -4.34366,2.17855 -6.76131,6.95664 -6.02259,11.81168 z"
         style="font-size:12px;fill-rule:evenodd;stroke-width:0.625;stroke-linejoin:round"
         id="path3080" />
    </g>
    <g
       style="font-size:20px;font-style:normal;font-weight:normal;line-height:125%;letter-spacing:0px;word-spacing:0px;fill:#000000;fill-opacity:1;stroke:none;font-family:Sans"
       id="text5097"
       transform="translate(-69.919234,-24.511916)">
      <path
         d="m 240.35129,298.39462 1.90429,0 3.41797,9.17969 3.41797,-9.17969 1.9043,0 -4.10156,10.9375 -2.44141,0 -4.10156,-10.9375"
         id="path3055"
         inkscape:connector-curvature="0" />
    </g>
    <g
       style="font-size:20px;font-style:normal;font-weight:normal;line-height:125%;letter-spacing:0px;word-spacing:0px;fill:#000000;fill-opacity:1;stroke:none;font-family:Sans"
       id="text5101">
      <path
         d="m 253.40947,198.31497 0,6.60156 -1.79688,0 0,-6.54296 c 0,-1.03515 -0.20183,-1.80989 -0.60546,-2.32422 -0.40366,-0.51432 -1.00913,-0.77148 -1.81641,-0.77149 -0.97006,1e-5 -1.73503,0.30926 -2.29492,0.92774 -0.5599,0.61849 -0.83985,1.46159 -0.83985,2.52929 l 0,6.18164 -1.80664,0 0,-10.9375 1.80664,0 0,1.69922 c 0.42969,-0.65754 0.93424,-1.14907 1.51368,-1.47461 0.58593,-0.32551 1.25976,-0.48827 2.02148,-0.48828 1.2565,1e-5 2.20702,0.39064 2.85156,1.17188 0.64452,0.77475 0.96679,1.91732 0.9668,3.42773"
         style=""
         id="path3076" />
    </g>
    <g
       id="g3070">
      <path
         style="font-size:medium;font-style:normal;font-variant:normal;font-weight:normal;font-stretch:normal;text-indent:0;text-align:start;text-decoration:none;line-height:normal;letter-spacing:normal;word-spacing:normal;text-transform:none;direction:ltr;block-progression:tb;writing-mode:lr-tb;text-anchor:start;baseline-shift:baseline;color:#000000;fill:#000000;fill-opacity:1;stroke:none;stroke-width:0.80000001;marker:none;visibility:visible;display:inline;overflow:visible;enable-background:accumulate;font-family:Sans;-inkscape-font-specification:Sans"
         d="m 238.8125,292 0,0.78125 15.5,0 0,-0.78125 -15.5,0 z"
         id="path5116-4"
         inkscape:connector-curvature="0" />
      <path
         d="m 245.75982,288.84015 9.61477,3.5356 -9.61477,3.53559 c 1.53604,-2.08741 1.52719,-4.94335 0,-7.07119 z"
         style="font-size:12px;fill-rule:evenodd;stroke-width:0.625;stroke-linejoin:round"
         id="path3077"
         inkscape:connector-curvature="0" />
    </g>
    <g
       id="g3059">
      <path
         style="font-size:medium;font-style:normal;font-variant:normal;font-weight:normal;font-stretch:normal;text-indent:0;text-align:start;text-decoration:none;line-height:normal;letter-spacing:normal;word-spacing:normal;text-transform:none;direction:ltr;block-progression:tb;writing-mode:lr-tb;text-anchor:start;baseline-shift:baseline;color:#000000;fill:#000000;fill-opacity:1;stroke:none;stroke-width:0.80000001;marker:none;visibility:visible;display:inline;overflow:visible;enable-background:accumulate;font-family:Sans;-inkscape-font-specification:Sans"
         d="m 242.375,188.46875 0,0.8125 15.5,0 0,-0.8125 -15.5,0 z"
         id="path5116-2"
         inkscape:connector-curvature="0" />
      <path
         d="m 249.32958,185.31701 9.61477,3.5356 -9.61477,3.53559 c 1.53604,-2.08741 1.52719,-4.94335 0,-7.07119 z"
         style="font-size:12px;fill-rule:evenodd;stroke-width:0.625;stroke-linejoin:round"
         id="path3068"
         inkscape:connector-curvature="0" />
    </g>
    <g
       id="g3079">
      <path
         style="font-size:medium;font-style:normal;font-variant:normal;font-weight:normal;font-stretch:normal;text-indent:0;text-align:start;text-decoration:none;line-height:normal;letter-spacing:normal;word-spacing:normal;text-transform:none;direction:ltr;block-progression:tb;writing-mode:lr-tb;text-anchor:start;baseline-shift:baseline;color:#000000;fill:#000000;fill-opacity:1;stroke:none;stroke-width:0.80000001;marker:none;visibility:visible;display:inline;overflow:visible;enable-background:accumulate;font-family:Sans;-inkscape-font-specification:Sans"
         d="m 168.3125,267 0,0.8125 15.5,0 0,-0.8125 -15.5,0 z"
         id="path5116-3"
         inkscape:connector-curvature="0" />
      <path
         d="m 175.25699,263.85181 9.61477,3.5356 -9.61477,3.53559 c 1.53604,-2.08741 1.52719,-4.94335 0,-7.07119 z"
         style="font-size:12px;fill-rule:evenodd;stroke-width:0.625;stroke-linejoin:round"
         id="path3086"
         inkscape:connector-curvature="0" />
    </g>
    <g
       style="font-size:20px;font-style:normal;font-weight:normal;line-height:125%;letter-spacing:0px;word-spacing:0px;fill:#000000;fill-opacity:1;stroke:none;font-family:Sans"
       id="text5418">
      <path
         d="m 270.27658,218.00215 8.37891,0 0,1.66016 -6.40625,0 0,4.29687 5.78125,0 0,1.66016 -5.78125,0 0,6.96289 -1.97266,0 0,-14.58008"
         style=""
         id="path3073" />
    </g>
    <g
       style="font-size:20px;font-style:normal;font-weight:normal;line-height:125%;letter-spacing:0px;word-spacing:0px;fill:#000000;fill-opacity:1;stroke:none;font-family:Sans"
       id="text5422">
      <path
         d="m 193.52669,187.65915 8.3789,0 0,1.66016 -6.40625,0 0,4.29687 5.78125,0 0,1.66016 -5.78125,0 0,6.96289 -1.97265,0 0,-14.58008"
         style=""
         id="path3082" />
    </g>
    <g
       style="font-size:14px;font-style:normal;font-weight:normal;line-height:125%;letter-spacing:0px;word-spacing:0px;fill:#000000;fill-opacity:1;stroke:none;font-family:Sans"
       id="text3805-0">
      <path
         d="m 281.18655,233.8069 c 0,-0.91145 -0.18913,-1.61783 -0.56738,-2.11914 -0.3737,-0.5013 -0.90007,-0.75195 -1.5791,-0.75195 -0.67448,0 -1.20085,0.25065 -1.5791,0.75195 -0.3737,0.50131 -0.56055,1.20769 -0.56055,2.11914 0,0.9069 0.18685,1.611 0.56055,2.1123 0.37825,0.50131 0.90462,0.75196 1.5791,0.75196 0.67903,0 1.2054,-0.25065 1.5791,-0.75196 0.37825,-0.5013 0.56738,-1.2054 0.56738,-2.1123 m 1.25782,2.9668 c -10e-6,1.30338 -0.2894,2.27181 -0.86817,2.90527 -0.57878,0.63802 -1.46517,0.95703 -2.65918,0.95703 -0.44206,0 -0.85905,-0.0342 -1.25097,-0.10254 -0.39193,-0.0638 -0.77247,-0.16406 -1.14161,-0.30078 l 0,-1.22363 c 0.36914,0.20052 0.73373,0.34863 1.09375,0.44433 0.36003,0.0957 0.72689,0.14356 1.10059,0.14356 0.82487,0 1.44238,-0.21647 1.85254,-0.64941 0.41015,-0.42839 0.61523,-1.0778 0.61523,-1.94825 l 0,-0.62207 c -0.25977,0.45118 -0.59245,0.78841 -0.99804,1.01172 -0.40561,0.22331 -0.89096,0.33496 -1.45606,0.33496 -0.9388,0 -1.69531,-0.35774 -2.26953,-1.07324 -0.57422,-0.71549 -0.86133,-1.66341 -0.86133,-2.84375 0,-1.18489 0.28711,-2.13509 0.86133,-2.85059 0.57422,-0.71548 1.33073,-1.07323 2.26953,-1.07324 0.5651,1e-5 1.05045,0.11166 1.45606,0.33496 0.40559,0.22332 0.73827,0.56056 0.99804,1.01172 l 0,-1.16211 1.25782,0 0,6.70606"
         style=""
         id="path3070" />
    </g>
    <g
       style="font-size:14px;font-style:normal;font-weight:normal;line-height:125%;letter-spacing:0px;word-spacing:0px;fill:#000000;fill-opacity:1;stroke:none;font-family:Sans"
       id="text3809-2">
      <path
         d="m 205.47911,204.72134 0,4.6211 -1.25781,0 0,-4.58008 c -1e-5,-0.7246 -0.14128,-1.26692 -0.42383,-1.62695 -0.28256,-0.36002 -0.70639,-0.54004 -1.27148,-0.54004 -0.67904,0 -1.21453,0.21648 -1.60645,0.64941 -0.39193,0.43295 -0.58789,1.02312 -0.58789,1.77051 l 0,4.32715 -1.26465,0 0,-10.63672 1.26465,0 0,4.16992 c 0.30078,-0.46028 0.65397,-0.80435 1.05957,-1.03223 0.41015,-0.22785 0.88183,-0.34178 1.41504,-0.34179 0.87955,1e-5 1.54491,0.27344 1.99609,0.82031 0.45117,0.54232 0.67675,1.34213 0.67676,2.39941"
         style=""
         id="path3079" />
    </g>
    <path
       sodipodi:type="arc"
       style="fill:#000000;fill-opacity:1;stroke:#000000;stroke-width:2;stroke-miterlimit:4;stroke-opacity:1;stroke-dasharray:none;stroke-dashoffset:0"
       id="path3773-6-3"
       sodipodi:cx="85.674324"
       sodipodi:cy="134.93294"
       sodipodi:rx="2.6773226"
       sodipodi:ry="2.6773226"
       d="m 88.351647,134.93294 c 0,1.47864 -1.198679,2.67732 -2.677323,2.67732 -1.478644,0 -2.677323,-1.19868 -2.677323,-2.67732 0,-1.47865 1.198679,-2.67733 2.677323,-2.67733 1.478644,0 2.677323,1.19868 2.677323,2.67733 z"
       transform="translate(175.31163,86.667045)" />
    <path
       sodipodi:type="arc"
       style="fill:#000000;fill-opacity:1;stroke:#000000;stroke-width:2;stroke-miterlimit:4;stroke-opacity:1;stroke-dasharray:none;stroke-dashoffset:0"
       id="path3773-6-1"
       sodipodi:cx="85.674324"
       sodipodi:cy="134.93294"
       sodipodi:rx="2.6773226"
       sodipodi:ry="2.6773226"
       d="m 88.351647,134.93294 c 0,1.47864 -1.198679,2.67732 -2.677323,2.67732 -1.478644,0 -2.677323,-1.19868 -2.677323,-2.67732 0,-1.47865 1.198679,-2.67733 2.677323,-2.67733 1.478644,0 2.677323,1.19868 2.677323,2.67733 z"
       transform="translate(124.06191,62.118862)" />
    <path
       style="fill:none;stroke:#000000;stroke-width:1;stroke-linecap:butt;stroke-linejoin:miter;stroke-opacity:1;stroke-miterlimit:4;stroke-dasharray:3,3;stroke-dashoffset:0"
       d="m 158.01936,117.64475 10.43827,60.38138"
       id="path3053"
       inkscape:connector-curvature="0"
       transform="translate(51.78125,79.526031)" />
    <g
       style="font-size:20px;font-style:normal;font-weight:normal;line-height:125%;letter-spacing:0px;word-spacing:0px;fill:#000000;fill-opacity:1;stroke:none;font-family:Sans"
       id="text3086">
      <path
         d="m 239.47423,297.95737 1.79687,0 2.2461,8.53515 2.23632,-8.53515 2.11915,0 2.24609,8.53515 2.23633,-8.53515 1.79687,0 -2.86133,10.9375 -2.11914,0 -2.35351,-8.96485 -2.36328,8.96485 -2.11914,0 -2.86133,-10.9375"
         style=""
         id="path3091" />
    </g>
  </g>
</svg>
